<svg id="Layer_3" data-name="Layer 3" xmlns="http://www.w3.org/2000/svg" viewBox="63.08 99.55 679.81 679.81">
  
  <path fill="currentColor" d="M537.75,349.65h52.36c6.47,0,11.73-5.26,11.73-11.73s-5.26-11.73-11.73-11.73h-52.36c-6.47,0-11.73,5.26-11.73,11.73s5.26,11.73,11.73,11.73Z"/>
  <path fill="currentColor" d="M711.97,506.48c0-53.25-43.32-96.57-96.57-96.57-6.01,0-11.88.56-17.59,1.61l-14.11-45.53c-.02-.07-.05-.14-.08-.21-.08-.24-.16-.47-.26-.7-.05-.12-.1-.25-.15-.37-.11-.24-.22-.48-.35-.71-.06-.11-.11-.21-.17-.32-.13-.23-.27-.46-.42-.68-.06-.1-.13-.2-.2-.29-.15-.21-.31-.42-.47-.62-.08-.1-.16-.19-.24-.29-.16-.19-.33-.37-.51-.54-.1-.1-.19-.2-.29-.29-.17-.16-.35-.32-.53-.47-.11-.09-.22-.19-.34-.27-.08-.06-.16-.14-.24-.2-.11-.08-.23-.15-.35-.23-.11-.07-.21-.14-.32-.21-.23-.15-.46-.28-.69-.41-.08-.05-.17-.09-.25-.13-.26-.14-.53-.26-.81-.38-.06-.03-.13-.05-.19-.08-.29-.12-.58-.22-.87-.31-.07-.02-.13-.04-.2-.06-.29-.08-.58-.16-.87-.22-.09-.02-.18-.04-.27-.05-.26-.05-.53-.09-.8-.12-.13-.02-.27-.03-.4-.04-.23-.02-.45-.03-.68-.03-.18,0-.36,0-.54,0-.19,0-.38.01-.57.03-.21.02-.41.04-.62.06-.1.01-.19.01-.29.03-.09.01-.17.04-.26.05-.19.03-.38.07-.57.11-.22.05-.43.1-.64.16-.08.02-.16.04-.24.06-.07.02-.14.05-.21.08-.23.07-.45.16-.67.25-.13.05-.26.11-.39.16-.22.1-.43.2-.64.31-.14.07-.27.14-.41.22-.19.11-.37.22-.55.33-.15.1-.3.2-.45.3-.15.11-.29.22-.44.33-.17.13-.33.27-.49.41-.12.1-.23.21-.34.31-.17.16-.34.33-.5.5-.1.1-.19.21-.28.32-.16.18-.31.37-.45.56-.05.06-.1.11-.14.17l-81.62,110.82c-3.3-1.02-6.8-1.57-10.43-1.57-15.46,0-28.64,9.94-33.49,23.77h-105.12l71.17-197.63h58.71c6.47,0,11.73-5.26,11.73-11.73s-5.26-11.73-11.73-11.73h-66.95c-4.93,0-9.36,3.12-11.03,7.75l-11.49,31.91-268.72,37.34c-5.76.8-10.11,5.79-10.11,11.61v144.2c0,6.47,5.26,11.73,11.73,11.73h42.94c0,.16-.01.32-.01.48,0,10.3,1.88,20.16,5.3,29.27,11.57,32.45,42.59,55.75,78.96,55.75,46.21,0,83.81-37.6,83.81-83.81,0-.57-.03-1.14-.04-1.71h120.87c4.85,13.82,18.03,23.77,33.49,23.77,19.57,0,35.49-15.92,35.49-35.49,0-7.42-2.29-14.31-6.19-20.01l67.86-92.14,7.27,23.46c-26.3,12-46.32,35.47-53.61,63.98-2.09,7.89-3.21,16.16-3.21,24.7,0,53.25,43.32,96.57,96.57,96.57,44.99,0,82.9-30.93,93.57-72.65,2.09-7.89,3.21-16.16,3.21-24.7ZM232.2,462.11c31.63,0,57.36,25.73,57.36,57.36s-25.73,57.36-57.36,57.36-57.36-25.73-57.36-57.36,25.73-57.36,57.36-57.36ZM232.2,435.9c-37.77,0-69.75,25.19-80.06,59.64h-34.71v-122.27l246.41-34.24-53.7,149.12c-3.27-7.73-7.67-14.86-12.99-21.21-15.33-18.92-38.74-31.05-64.94-31.05ZM603.99,510.72c1.53,4.94,6.03,8.26,11.2,8.26,1.17,0,2.34-.18,3.47-.53,6.18-1.91,9.64-8.5,7.73-14.67l-21.31-68.78c3.37-.48,6.81-.75,10.31-.75,39.82,0,72.22,32.4,72.22,72.22s-32.4,72.22-72.22,72.22-72.22-32.4-72.22-72.22c0-28.07,16.11-52.43,39.55-64.38l21.26,68.63Z"/>
</svg>
