<svg id="Layer_3" data-name="Layer 3" xmlns="http://www.w3.org/2000/svg" viewBox="148.53 174.31 530.25 530.25">
  
  <path fill="currentColor" d="M654.64,506.11c0-13.03-2.55-25.68-7.59-37.59-4.86-11.5-11.83-21.83-20.69-30.69-8.87-8.87-19.19-15.83-30.69-20.69-11.91-5.04-24.56-7.59-37.59-7.59-5.64,0-11.21.48-16.67,1.43l-13.83-44.65c-.03-.09-.06-.17-.09-.25-.06-.17-.11-.33-.18-.5-.06-.17-.13-.33-.2-.49-.07-.16-.13-.31-.21-.47-.13-.26-.27-.52-.41-.76-.04-.06-.07-.12-.1-.18-.18-.29-.37-.57-.57-.85-.03-.04-.07-.08-.1-.13-.2-.27-.42-.53-.64-.77-.01-.02-.03-.03-.04-.05-1.03-1.13-2.28-2.05-3.66-2.7-.02,0-.04-.02-.06-.03-.3-.14-.61-.27-.93-.38-.05-.02-.1-.04-.15-.06-.32-.11-.64-.21-.97-.29-.1-.03-.2-.04-.3-.07-.25-.06-.5-.11-.76-.15-.18-.03-.36-.05-.54-.07-.16-.02-.33-.04-.49-.05-.18-.01-.37-.02-.55-.02-.08,0-.17-.01-.25-.01h-187.07l18.54-59.84h58.31c6.47,0,11.73-5.26,11.73-11.73s-5.26-11.73-11.73-11.73h-66.95c-5.17,0-9.67,3.32-11.2,8.26l-25.79,83.26s0,.02-.01.03l-13.94,44.99c-6.06-1.18-12.25-1.78-18.53-1.78-13.03,0-25.68,2.55-37.59,7.59-11.5,4.86-21.83,11.83-30.69,20.69-8.87,8.87-15.83,19.19-20.69,30.69-.76,1.8-1.46,3.63-2.11,5.47-3.9,10.47-6.03,21.79-6.03,33.6,0,53.25,43.32,96.57,96.57,96.57,41.13,0,76.33-25.85,90.22-62.15,4.58-11.41,6.9-23.48,6.9-35.9,0-13.03-2.55-25.68-7.59-37.59-4.86-11.5-11.83-21.83-20.69-30.69-8.02-8.02-17.25-14.47-27.45-19.23l7.17-23.15,66.82,90.72c-1.31,1.92-2.43,3.97-3.34,6.13-1.85,4.38-2.79,9.03-2.79,13.82s.94,9.44,2.79,13.82c1.03,2.43,2.31,4.7,3.83,6.82,6.32,9.81,17.34,16.33,29.85,16.33,19.57,0,35.49-15.92,35.49-35.49,0-7.42-2.29-14.31-6.19-20.01l67.86-92.14,6.93,22.37c-10.89,4.83-20.71,11.54-29.18,20.01-4.7,4.7-8.85,9.83-12.46,15.31-10.63,15.51-16.86,34.26-16.86,54.45,0,53.25,43.32,96.57,96.57,96.57,32.17,0,60.71-15.82,78.27-40.08,4.72-6.27,8.65-13.09,11.74-20.38,5.04-11.91,7.59-24.56,7.59-37.59ZM425.99,472.73c-3.87-1.4-7.93-2.12-12.09-2.12-3.6,0-7.13.53-10.52,1.59l-66.79-90.68h156.58l-67.18,91.21ZM259.5,504.12c-1.91,6.18,1.56,12.76,7.73,14.67,1.13.35,2.3.53,3.47.53,5.17,0,9.67-3.32,11.2-8.26l20.87-67.37c22.94,12.11,38.61,36.2,38.61,63.9,0,39.82-32.4,72.22-72.22,72.22s-72.22-32.4-72.22-72.22,32.4-72.22,72.22-72.22c3.86,0,7.66.31,11.36.9l-21.02,67.85ZM537.82,437.99l-12.57,71.03c-.28,1.58.8,2.86,2.4,2.86,0,0,29.59-.03,29.65-.04,0,0-8.11,40.98-13.22,66.79-33.66-6.13-59.26-35.64-59.26-71.04,0-33.17,22.48-61.16,53-69.6ZM605.07,484.85c.77-1.39.07-2.52-1.56-2.52h-38.85l8.15-45.21c32.26,7.22,56.46,36.06,56.46,70.47,0,39.82-32.4,72.22-72.22,72.22-1.46,0-2.92-.06-4.36-.14l52.38-94.82Z"/>
  <path fill="currentColor" d="M476.97,345.32h52.36c6.47,0,11.73-5.26,11.73-11.73s-5.26-11.73-11.73-11.73h-52.36c-6.47,0-11.73,5.26-11.73,11.73s5.26,11.73,11.73,11.73Z"/>
</svg>
