<svg id="Layer_1" data-name="Layer 1" xmlns="http://www.w3.org/2000/svg" viewBox="211.11 251.62 370.39 370.39">
  
  <path fill="currentColor" d="M529.79,376.11l-118.14-100.12c-8.88-7.53-21.77-7.53-30.65,0l-118.14,100.12c-5.33,4.51-8.38,11.1-8.38,18.08v187.29c0,13.07,10.63,23.7,23.7,23.7h63.66c13.07,0,23.7-10.63,23.7-23.7v-101.84c0-.39.32-.7.7-.7h60.14c.39,0,.7.32.7.7v101.84c0,13.07,10.63,23.7,23.7,23.7h63.66c13.07,0,23.7-10.63,23.7-23.7v-187.29c0-6.98-3.05-13.57-8.38-18.08ZM426.39,455.94h-60.14c-13.07,0-23.7,10.63-23.7,23.7v101.84c0,.39-.32.7-.7.7h-63.66c-.39,0-.7-.32-.7-.7v-187.29c0-.21.09-.4.25-.54l118.14-100.12c.27-.22.65-.22.91,0l118.14,100.12c.16.13.25.33.25.54v187.29c0,.39-.32.7-.7.7h-63.66c-.39,0-.7-.32-.7-.7v-101.84c0-13.07-10.63-23.7-23.7-23.7Z"/>
</svg>
