<svg id="Layer_5" data-name="Layer 5" xmlns="http://www.w3.org/2000/svg" viewBox="163.43 224.43 403.08 403.08">
  
  <path fill="currentColor" d="M395.7,377.98h-60.18l-6.99-12.11c3.63-.33,6.49-3.39,6.49-7.11,0-3.94-3.2-7.14-7.14-7.14h-11.92s-.01,0-.02,0h-17.42c-3.94,0-7.14,3.2-7.14,7.14s3.2,7.14,7.14,7.14h13.54l11.1,19.22-10.38,17.97c-6.1-2.5-12.78-3.88-19.77-3.88-28.89,0-52.4,23.5-52.4,52.39s23.51,52.4,52.4,52.4c26.47,0,48.4-19.73,51.9-45.26h24.87c2.54,0,4.91-1.37,6.18-3.57,0,0,0,0,0-.01l32.14-55.68,6.22,10.77c-12.33,9.59-20.28,24.56-20.28,41.35,0,28.89,23.5,52.4,52.4,52.4s52.39-23.51,52.39-52.4-23.5-52.39-52.39-52.39c-6.95,0-13.59,1.37-19.67,3.84l-21.35-37.15h11.16c3.94,0,7.14-3.2,7.14-7.14s-3.2-7.14-7.14-7.14h-11.16c-5.21,0-9.88,2.69-12.48,7.21-2.6,4.52-2.6,9.9,0,14.41l2.74,4.74ZM421.56,422.77l18.71,32.4c1.27,2.2,3.64,3.57,6.19,3.57,1.25,0,2.48-.33,3.57-.96,1.65-.95,2.83-2.49,3.33-4.34.49-1.84.24-3.76-.72-5.42l-18.64-32.44c3.91-1.36,8.1-2.1,12.46-2.1,21.02,0,38.11,17.1,38.11,38.12s-17.1,38.12-38.11,38.12-38.12-17.1-38.12-38.12c0-11.51,5.14-21.84,13.23-28.83ZM293.01,489.72c-21.02,0-38.12-17.1-38.12-38.12s17.1-38.12,38.12-38.12c4.39,0,8.61.76,12.54,2.13l-18.72,32.42c-1.27,2.2-1.27,4.94,0,7.14,1.27,2.2,3.64,3.57,6.18,3.57h37.43c-3.35,17.61-18.86,30.98-37.43,30.98ZM305.38,444.46l12.52-21.69s4.48,3.22,8.02,9.28,4.52,12.41,4.52,12.41h-25.07ZM344.91,444.46c-1.9-13.86-9.23-26-19.78-34.21l6.27-10.85,26.02,45.06h-12.5ZM369.78,437.32s-6.38-11.08-13.41-23.23l-12.6-21.83h52.04l-26.02,45.06Z"/>
  <g>
    <path fill="currentColor" d="M508.25,330.5c-1.1-1.56-2.74-2.6-4.61-2.93-1.89-.34-3.78.09-5.33,1.18-3.22,2.26-4,6.72-1.75,9.95,18.98,27.06,29.01,58.91,29.01,92.1,0,88.56-72.04,160.6-160.6,160.6s-160.6-72.05-160.6-160.6,72.05-160.6,160.6-160.6c3.94,0,7.14-3.2,7.14-7.14s-3.2-7.14-7.14-7.14c-96.43,0-174.88,78.45-174.88,174.88s78.45,174.88,174.88,174.88,174.88-78.45,174.88-174.88c0-36.13-10.93-70.82-31.6-100.3Z"/>
    <path fill="currentColor" d="M364.97,609.19c-98.36,0-178.38-80.02-178.38-178.38s80.02-178.38,178.38-178.38c5.87,0,10.64,4.77,10.64,10.64s-4.77,10.64-10.64,10.64c-86.63,0-157.1,70.48-157.1,157.1s70.48,157.1,157.1,157.1,157.1-70.48,157.1-157.1c0-32.47-9.81-63.62-28.38-90.09-3.36-4.81-2.19-11.46,2.6-14.82,2.33-1.64,5.16-2.27,7.97-1.76,2.78.49,5.22,2.04,6.86,4.36h0c21.09,30.08,32.23,65.46,32.23,102.31,0,98.36-80.02,178.38-178.38,178.38ZM364.97,259.42c-94.5,0-171.38,76.88-171.38,171.38s76.88,171.38,171.38,171.38,171.38-76.88,171.38-171.38c0-35.41-10.71-69.4-30.96-98.29h0c-.56-.8-1.4-1.33-2.36-1.5-.98-.18-1.91.03-2.71.6-1.65,1.16-2.05,3.43-.9,5.08,19.39,27.65,29.65,60.19,29.65,94.11,0,90.49-73.61,164.1-164.1,164.1s-164.1-73.62-164.1-164.1,73.62-164.1,164.1-164.1c2.01,0,3.64-1.63,3.64-3.64s-1.63-3.64-3.64-3.64Z"/>
  </g>
  <g>
    <path fill="currentColor" d="M427.29,316.06c1.09,2.17,3.18,3.63,5.61,3.9.26.03.51.04.77.04,2.35,0,4.56-1.16,5.89-3.11l39.68-58c1.08-1.57,1.48-3.47,1.12-5.35-.35-1.87-1.41-3.5-2.99-4.58-3.23-2.22-7.7-1.38-9.92,1.86l-33.31,48.68-13.65-23.33c-1.99-3.4-6.38-4.54-9.77-2.56-3.4,1.99-4.54,6.37-2.56,9.77l19.12,32.66Z"/>
    <path fill="currentColor" d="M433.68,323.5c-.38,0-.75-.02-1.13-.06-3.6-.4-6.69-2.53-8.33-5.71l-19.06-32.57c-2.96-5.07-1.25-11.6,3.81-14.56,2.45-1.43,5.31-1.82,8.07-1.11,2.76.72,5.06,2.47,6.49,4.92l10.86,18.56,30.19-44.13c3.32-4.84,9.95-6.09,14.79-2.77,2.35,1.6,3.93,4.03,4.45,6.82.53,2.79-.07,5.62-1.68,7.97l-39.68,57.99c-1.99,2.9-5.28,4.63-8.78,4.63ZM414.33,276.16c-.64,0-1.26.17-1.82.5-1.73,1.01-2.32,3.25-1.3,4.98l19.23,32.86c.55,1.11,1.62,1.85,2.86,1.99.11.01.25.02.39.02,1.2,0,2.33-.59,3.01-1.59l39.68-57.99c.55-.8.75-1.77.57-2.72-.18-.97-.71-1.78-1.52-2.34-1.66-1.13-3.92-.71-5.06.95l-36.43,53.24-16.44-28.1c-.49-.84-1.28-1.43-2.22-1.68-.31-.08-.62-.12-.94-.12Z"/>
  </g>
</svg>
