<svg id="Layer_1" data-name="Layer 1" xmlns="http://www.w3.org/2000/svg" viewBox="207.64 254.65 366.21 366.21">
  
  <path fill="currentColor" d="M390.7,271.31c-73.92,0-134.06,60.14-134.06,134.06,0,26.55,16.98,79.57,97.86,181.32,7.66,9.69,18.65,15.8,30.93,17.22,1.8.21,3.62.31,5.41.31,10.49,0,20.41-3.47,28.67-10.04,2.72-2.16,5.24-4.67,7.47-7.47,17.25-21.67,42.02-54.47,62.08-87.67,23.75-39.31,35.8-70.83,35.8-93.7-.13-73.91-60.32-134.04-134.18-134.04ZM390.69,294.31c61.19.01,111.07,49.83,111.18,111.06,0,31.99-33.85,92.86-92.86,167-1.15,1.44-2.43,2.72-3.8,3.81-4.86,3.86-10.95,5.6-17.14,4.89-6.17-.71-11.69-3.79-15.55-8.67-59.03-74.26-92.88-135.13-92.88-167.03,0-61.24,49.82-111.06,111.06-111.06Z"/>
  <path fill="currentColor" d="M390.7,465.47c33.11,0,60.04-26.96,60.04-60.1s-26.96-60.04-60.1-60.04c-16.06,0-31.16,6.27-42.51,17.65-11.34,11.36-17.56,26.45-17.53,42.48.08,33.09,27.04,60.01,60.1,60.01ZM353.6,405.4c-.02-9.87,3.82-19.17,10.81-26.18,7.01-7.02,16.32-10.89,26.23-10.89,20.46,0,37.1,16.62,37.1,37.04s-16.62,37.1-37.04,37.1-37.05-16.63-37.1-37.06Z"/>
</svg>
