<svg id="Layer_1" data-name="Layer 1" xmlns="http://www.w3.org/2000/svg" viewBox="193.02 249.15 376.12 376.12">
  
  <path fill="currentColor" d="M550.61,355.21c-1.81-4.7-5.26-8.68-9.73-11.2-6.83-3.84-14.96-3.8-21.77.1l-29.56,17.07-12.35-7.2-.06-14.29,29.56-17.07c6.79-3.92,10.89-10.94,10.98-18.79.09-7.86-3.88-14.98-10.61-19.05-29.42-17.77-66.05-18-95.59-.59-31.52,18.56-49.23,54.17-45.22,90.84l-133.5,133.5c-22.64,22.64-22.64,59.48,0,82.12,10.96,10.96,25.54,16.99,41.06,16.99s30.1-6.03,41.06-16.99l133.38-133.38c19.73,2.26,40.03-1.96,57.23-11.88,27.82-16.07,45.66-46.04,46.56-78.21v-.07s-1.38-11.66-1.38-11.66l-.06-.24ZM389.78,377.12c-5.1-28.97,8.31-58.35,33.38-73.11,10.78-6.35,23.08-9.7,35.58-9.7s24.28,3.2,34.94,9.28l-39.58,22.85.18,40.78,35.25,20.55,38.65-23.42c.25,2.82.57,9.13-.77,15.55-2.16,10.42-15.54,35.25-33.41,45.57-14.41,8.32-31.35,11.25-47.71,8.27l-5.93-1.08-141.73,141.73c-6.61,6.61-15.42,10.25-24.79,10.25s-18.18-3.64-24.8-10.25c-13.67-13.67-13.67-35.92,0-49.59l141.79-141.79-1.04-5.89Z"/>
</svg>
